<svg width="187" height="39" viewBox="0 0 187 39" fill="none" xmlns="http://www.w3.org/2000/svg">
<path d="M55.2249 27.8696L59.4477 27.8624L55.1939 6.04541H51.0742L55.2249 27.8696Z" fill="white"/>
<path d="M63.5614 27.8696L59.3386 27.8624L64.7532 6.04541H68.8729L63.5614 27.8696Z" fill="white"/>
<path d="M70.0647 27.8696L74.2875 27.8624L68.8729 6.04541H64.7532L70.0647 27.8696Z" fill="white"/>
<path d="M78.4012 27.8696L74.1784 27.8624L78.4322 6.04541H82.5519L78.4012 27.8696Z" fill="white"/>
<path d="M85.8408 17.2822C85.8408 15.0773 86.2972 13.1248 87.2099 11.4247C88.1495 9.72458 89.4112 8.40964 90.9951 7.47989C92.6058 6.52357 94.3776 6.04541 96.3105 6.04541C98.0554 6.04541 99.5722 6.39075 100.861 7.08142C102.176 7.74553 103.223 8.58231 104.002 9.59176V6.40403H108.632V28.3595H104.002V25.0921C103.223 26.1281 102.163 26.9915 100.82 27.6821C99.4782 28.3728 97.948 28.7181 96.2299 28.7181C94.3239 28.7181 92.579 28.24 90.9951 27.2837C89.4112 26.3008 88.1495 24.946 87.2099 23.2193C86.2972 21.4661 85.8408 19.487 85.8408 17.2822ZM104.002 17.3619C104.002 15.8477 103.679 14.5327 103.035 13.417C102.418 12.3013 101.599 11.4513 100.579 10.8669C99.5587 10.2824 98.4581 9.99023 97.2769 9.99023C96.0957 9.99023 94.995 10.2824 93.9749 10.8669C92.9548 11.4247 92.1226 12.2615 91.4783 13.3772C90.8609 14.4663 90.5522 15.768 90.5522 17.2822C90.5522 18.7963 90.8609 20.1246 91.4783 21.2668C92.1226 22.4091 92.9548 23.2857 93.9749 23.8967C95.0219 24.4811 96.1225 24.7733 97.2769 24.7733C98.4581 24.7733 99.5587 24.4811 100.579 23.8967C101.599 23.3123 102.418 22.4622 103.035 21.3465C103.679 20.2043 104.002 18.876 104.002 17.3619Z" fill="white"/>
<path d="M134.635 6.40403L121.024 38.6798H116.273L120.783 28.0009L112.044 6.40403H117.159L123.4 23.1396L129.883 6.40403H134.635Z" fill="white"/>
<path d="M158.193 6.40403V28.3595H153.602V25.7695C152.877 26.6727 151.924 27.3899 150.743 27.9212C149.589 28.4259 148.354 28.6783 147.039 28.6783C145.294 28.6783 143.723 28.3197 142.327 27.6024C140.958 26.8852 139.871 25.8226 139.065 24.4147C138.287 23.0068 137.898 21.3067 137.898 19.3143V6.40403H142.448V18.6369C142.448 20.6027 142.945 22.1169 143.938 23.1795C144.931 24.2155 146.287 24.7335 148.005 24.7335C149.723 24.7335 151.079 24.2155 152.072 23.1795C153.092 22.1169 153.602 20.6027 153.602 18.6369V6.40403H158.193Z" fill="white"/>
<path d="M168.84 9.63161C169.619 8.62216 170.679 7.7721 172.021 7.08142C173.364 6.39075 174.88 6.04541 176.572 6.04541C178.504 6.04541 180.263 6.52357 181.847 7.47989C183.457 8.40964 184.719 9.72458 185.632 11.4247C186.545 13.1248 187.001 15.0773 187.001 17.2822C187.001 19.487 186.545 21.4661 185.632 23.2193C184.719 24.946 183.457 26.3008 181.847 27.2837C180.263 28.24 178.504 28.7181 176.572 28.7181C174.88 28.7181 173.377 28.3861 172.062 27.722C170.746 27.0313 169.672 26.1812 168.84 25.1718V38.7994H164.25V6.40403H168.84V9.63161ZM182.33 17.2822C182.33 15.768 182.008 14.4663 181.363 13.3772C180.746 12.2615 179.914 11.4247 178.867 10.8669C177.847 10.2824 176.746 9.99023 175.565 9.99023C174.41 9.99023 173.31 10.2824 172.263 10.8669C171.243 11.4513 170.411 12.3013 169.766 13.417C169.149 14.5327 168.84 15.8477 168.84 17.3619C168.84 18.876 169.149 20.2043 169.766 21.3465C170.411 22.4622 171.243 23.3123 172.263 23.8967C173.31 24.4811 174.41 24.7733 175.565 24.7733C176.746 24.7733 177.847 24.4811 178.867 23.8967C179.914 23.2857 180.746 22.4091 181.363 21.2668C182.008 20.1246 182.33 18.7963 182.33 17.2822Z" fill="white"/>
<path d="M19.0016 21.9123C18.7013 21.7044 18.3016 21.7044 18.0013 21.9123L2.60161 32.5744C2.08462 32.9323 1.36647 32.6456 1.24532 32.0328L0.0162646 25.8167C-0.0490175 25.4865 0.085494 25.1489 0.36091 24.9516L18.0001 12.3178C18.3004 12.1027 18.7052 12.0989 19.0096 12.3083L36.6321 24.4319C36.9132 24.6253 37.054 24.9635 36.9921 25.2967L35.7454 32.0133C35.6306 32.6316 34.9078 32.9251 34.3873 32.5647L19.0016 21.9123Z" fill="#203FFF"/>
<path d="M30.3555 15.2059C30.876 15.5663 31.5989 15.2729 31.7136 14.6545L32.5723 10.0284C32.6342 9.69525 32.4934 9.35706 32.2123 9.16368L19.1168 0.154469C18.8125 -0.0549234 18.4076 -0.0511163 18.1073 0.163962L4.99519 9.55539C4.71977 9.75266 4.58526 10.0903 4.65054 10.4205L5.49156 14.6741C5.61272 15.2868 6.33086 15.5736 6.84785 15.2156L18.1085 7.41922C18.4089 7.2113 18.8085 7.2113 19.1088 7.41922L30.3555 15.2059Z" fill="#203FFF"/>
<mask id="mask0_141_440" style="mask-type:alpha" maskUnits="userSpaceOnUse" x="0" y="12" width="38" height="21">
<path d="M19.0016 21.9123C18.7013 21.7044 18.3016 21.7044 18.0013 21.9123L2.60161 32.5744C2.08462 32.9323 1.36647 32.6456 1.24532 32.0328L0.0162646 25.8167C-0.0490175 25.4865 0.085494 25.1489 0.36091 24.9516L18.0001 12.3178C18.3004 12.1027 18.7052 12.0989 19.0096 12.3083L36.6321 24.4319C36.9132 24.6253 37.054 24.9635 36.9921 25.2967L35.7454 32.0133C35.6306 32.6316 34.9078 32.9251 34.3873 32.5647L19.0016 21.9123Z" fill="#203FFF"/>
</mask>
<g mask="url(#mask0_141_440)">
<path d="M18.5923 11.4385L38.1121 23.2005L38.6573 36.0416H18.5923V11.4385Z" fill="#203FFF"/>
</g>
<mask id="mask1_141_440" style="mask-type:alpha" maskUnits="userSpaceOnUse" x="4" y="0" width="29" height="16">
<path d="M30.3564 15.2064C30.877 15.5668 31.5998 15.2734 31.7146 14.655L32.5733 10.0289C32.6351 9.69573 32.4943 9.35755 32.2132 9.16417L19.1178 0.154957C18.8134 -0.0544351 18.4086 -0.050628 18.1083 0.16445L4.99616 9.55588C4.72075 9.75315 4.58624 10.0908 4.65152 10.4209L5.49254 14.6745C5.61369 15.2873 6.33184 15.574 6.84883 15.2161L18.1095 7.41971C18.4098 7.21179 18.8095 7.21179 19.1098 7.41971L30.3564 15.2064Z" fill="#203FFF"/>
</mask>
<g mask="url(#mask1_141_440)">
<path d="M18.6299 -0.556152V8.18442L32.5882 18.9753L33.6786 9.04769L18.6299 -0.556152Z" fill="#203FFF"/>
</g>
</svg>
