<svg width="307" height="65" viewBox="0 0 307 65" fill="none" xmlns="http://www.w3.org/2000/svg">
<path d="M90.6629 46.2376L97.5955 46.2256L90.612 10.0298H83.8486L90.6629 46.2376Z" fill="black"/>
<path d="M104.349 46.2376L97.4164 46.2256L106.306 10.0298H113.069L104.349 46.2376Z" fill="black"/>
<path d="M115.025 46.2376L121.958 46.2256L113.069 10.0298H106.306L115.025 46.2376Z" fill="black"/>
<path d="M128.712 46.2376L121.779 46.2256L128.762 10.0298H135.526L128.712 46.2376Z" fill="black"/>
<path d="M140.925 28.6723C140.925 25.0143 141.675 21.775 143.173 18.9544C144.715 16.1338 146.787 13.9522 149.387 12.4097C152.031 10.8231 154.94 10.0298 158.113 10.0298C160.978 10.0298 163.468 10.6027 165.584 11.7486C167.743 12.8504 169.462 14.2387 170.74 15.9134V10.6248H178.342V47.0503H170.74V41.6295C169.462 43.3483 167.721 44.7806 165.517 45.9265C163.314 47.0724 160.802 47.6453 157.981 47.6453C154.852 47.6453 151.987 46.852 149.387 45.2654C146.787 43.6347 144.715 41.3871 143.173 38.5224C141.675 35.6136 140.925 32.3302 140.925 28.6723ZM170.74 28.8045C170.74 26.2924 170.211 24.1108 169.153 22.2598C168.14 20.4088 166.796 18.9984 165.121 18.0289C163.446 17.0593 161.639 16.5745 159.7 16.5745C157.761 16.5745 155.954 17.0593 154.279 18.0289C152.604 18.9544 151.238 20.3426 150.18 22.1937C149.167 24.0006 148.66 26.1602 148.66 28.6723C148.66 31.1844 149.167 33.388 150.18 35.2831C151.238 37.1782 152.604 38.6326 154.279 39.6462C155.998 40.6158 157.805 41.1006 159.7 41.1006C161.639 41.1006 163.446 40.6158 165.121 39.6462C166.796 38.6766 168.14 37.2663 169.153 35.4153C170.211 33.5202 170.74 31.3166 170.74 28.8045Z" fill="black"/>
<path d="M221.031 10.6248L198.686 64.1723H190.885L198.29 46.4553L183.944 10.6248H192.34L202.587 38.3902L213.23 10.6248H221.031Z" fill="black"/>
<path d="M259.706 10.6248V47.0503H252.17V42.7533C250.98 44.2517 249.415 45.4417 247.476 46.3231C245.581 47.1605 243.554 47.5792 241.394 47.5792C238.529 47.5792 235.951 46.9842 233.659 45.7943C231.412 44.6043 229.627 42.8414 228.305 40.5056C227.027 38.1698 226.388 35.3492 226.388 32.0438V10.6248H233.858V30.9199C233.858 34.1813 234.673 36.6934 236.304 38.4563C237.934 40.1751 240.16 41.0345 242.981 41.0345C245.801 41.0345 248.027 40.1751 249.658 38.4563C251.332 36.6934 252.17 34.1813 252.17 30.9199V10.6248H259.706Z" fill="black"/>
<path d="M277.186 15.9795C278.464 14.3048 280.205 12.8945 282.408 11.7486C284.612 10.6027 287.102 10.0298 289.879 10.0298C293.052 10.0298 295.939 10.8231 298.539 12.4097C301.183 13.9522 303.255 16.1338 304.753 18.9544C306.251 21.775 307.001 25.0143 307.001 28.6723C307.001 32.3302 306.251 35.6136 304.753 38.5224C303.255 41.3871 301.183 43.6347 298.539 45.2654C295.939 46.852 293.052 47.6453 289.879 47.6453C287.102 47.6453 284.634 47.0944 282.475 45.9926C280.315 44.8467 278.552 43.4364 277.186 41.7617V64.3706H269.65V10.6248H277.186V15.9795ZM299.332 28.6723C299.332 26.1602 298.803 24.0006 297.746 22.1937C296.732 20.3426 295.366 18.9544 293.647 18.0289C291.972 17.0593 290.165 16.5745 288.226 16.5745C286.331 16.5745 284.524 17.0593 282.805 18.0289C281.13 18.9984 279.764 20.4088 278.706 22.2598C277.693 24.1108 277.186 26.2924 277.186 28.8045C277.186 31.3166 277.693 33.5202 278.706 35.4153C279.764 37.2663 281.13 38.6766 282.805 39.6462C284.524 40.6158 286.331 41.1006 288.226 41.1006C290.165 41.1006 291.972 40.6158 293.647 39.6462C295.366 38.6326 296.732 37.1782 297.746 35.2831C298.803 33.388 299.332 31.1844 299.332 28.6723Z" fill="black"/>
<path d="M31.1951 36.3536C30.702 36.0086 30.046 36.0086 29.5529 36.3536L4.27108 54.0426C3.42234 54.6364 2.24335 54.1607 2.04445 53.1441L0.0267018 42.8311C-0.0804724 42.2834 0.140356 41.7232 0.592509 41.396L29.5509 20.4356C30.0439 20.0788 30.7086 20.0725 31.2082 20.4198L60.1392 40.5338C60.6007 40.8546 60.8318 41.4157 60.7303 41.9685L58.6836 53.1117C58.4952 54.1376 57.3085 54.6245 56.4539 54.0265L31.1951 36.3536Z" fill="#203FFF"/>
<path d="M49.8351 25.2276C50.6897 25.8255 51.8764 25.3386 52.0648 24.3128L53.4745 16.6378C53.576 16.085 53.3449 15.524 52.8834 15.2031L31.3845 0.256274C30.8848 -0.0911213 30.2202 -0.0848051 29.7272 0.272024L8.20091 15.853C7.74875 16.1803 7.52793 16.7404 7.6351 17.2882L9.01581 24.3452C9.21471 25.3618 10.3937 25.8375 11.2424 25.2437L29.7292 12.309C30.2222 11.964 30.8783 11.964 31.3713 12.309L49.8351 25.2276Z" fill="#203FFF"/>
<mask id="mask0_141_426" style="mask-type:alpha" maskUnits="userSpaceOnUse" x="0" y="20" width="61" height="35">
<path d="M31.1951 36.3536C30.702 36.0086 30.046 36.0086 29.5529 36.3536L4.27108 54.0426C3.42234 54.6364 2.24335 54.1607 2.04445 53.1441L0.0267018 42.8311C-0.0804724 42.2834 0.140356 41.7232 0.592509 41.396L29.5509 20.4356C30.0439 20.0788 30.7086 20.0725 31.2082 20.4198L60.1392 40.5338C60.6007 40.8546 60.8318 41.4157 60.7303 41.9685L58.6836 53.1117C58.4952 54.1376 57.3085 54.6245 56.4539 54.0265L31.1951 36.3536Z" fill="#203FFF"/>
</mask>
<g mask="url(#mask0_141_426)">
<path d="M30.5234 18.9771L62.5692 38.491L63.4644 59.7952H30.5234V18.9771Z" fill="#203FFF"/>
</g>
<mask id="mask1_141_426" style="mask-type:alpha" maskUnits="userSpaceOnUse" x="7" y="0" width="47" height="26">
<path d="M49.8361 25.228C50.6907 25.826 51.8774 25.3391 52.0658 24.3133L53.4755 16.6383C53.577 16.0855 53.3459 15.5244 52.8844 15.2036L31.3855 0.256762C30.8858 -0.090633 30.2212 -0.0843168 29.7282 0.272512L8.20188 15.8535C7.74973 16.1808 7.5289 16.7409 7.63608 17.2887L9.01679 24.3457C9.21569 25.3623 10.3947 25.838 11.2434 25.2442L29.7302 12.3095C30.2232 11.9645 30.8793 11.9645 31.3723 12.3095L49.8361 25.228Z" fill="#203FFF"/>
</mask>
<g mask="url(#mask1_141_426)">
<path d="M30.5845 -0.922852V13.5783L53.4999 31.481L55.2902 15.0105L30.5845 -0.922852Z" fill="#203FFF"/>
</g>
</svg>
