<svg width="218" height="46" viewBox="0 0 218 46" fill="none" xmlns="http://www.w3.org/2000/svg">
<path d="M64.2701 32.9967L69.1748 32.9882L64.2341 7.38062H59.4492L64.2701 32.9967Z" fill="white"/>
<path d="M73.9527 32.9967L69.048 32.9882L75.3369 7.38062H80.1218L73.9527 32.9967Z" fill="white"/>
<path d="M81.506 32.9967L86.4107 32.9882L80.1218 7.38062H75.3369L81.506 32.9967Z" fill="white"/>
<path d="M91.1886 32.9967L86.2839 32.9882L91.2246 7.38062H96.0095L91.1886 32.9967Z" fill="white"/>
<path d="M99.8262 20.5697C99.8262 17.9818 100.356 15.69 101.416 13.6945C102.508 11.699 103.973 10.1556 105.813 9.06432C107.683 7.94185 109.741 7.38062 111.986 7.38062C114.013 7.38062 115.775 7.78595 117.271 8.59663C118.799 9.37612 120.015 10.3583 120.919 11.5431V7.80154H126.298V33.5717H120.919V29.7365C120.015 30.9526 118.783 31.9659 117.225 32.7766C115.666 33.5872 113.888 33.9926 111.893 33.9926C109.679 33.9926 107.652 33.4314 105.813 32.3089C103.973 31.1552 102.508 29.5651 101.416 27.5384C100.356 25.4805 99.8262 23.1576 99.8262 20.5697ZM120.919 20.6632C120.919 18.886 120.545 17.3426 119.797 16.033C119.08 14.7235 118.129 13.7257 116.944 13.0398C115.759 12.3538 114.481 12.0108 113.109 12.0108C111.737 12.0108 110.458 12.3538 109.274 13.0398C108.089 13.6945 107.122 14.6767 106.374 15.9862C105.657 17.2646 105.298 18.7924 105.298 20.5697C105.298 22.3469 105.657 23.9059 106.374 25.2466C107.122 26.5874 108.089 27.6163 109.274 28.3335C110.49 29.0194 111.768 29.3624 113.109 29.3624C114.481 29.3624 115.759 29.0194 116.944 28.3335C118.129 27.6475 119.08 26.6497 119.797 25.3402C120.545 23.9995 120.919 22.4405 120.919 20.6632Z" fill="white"/>
<path d="M156.499 7.80154L140.69 45.685H135.172L140.41 33.1507L130.261 7.80154H136.201L143.45 27.4448L150.98 7.80154H156.499Z" fill="white"/>
<path d="M183.86 7.80154V33.5717H178.529V30.5316C177.687 31.5917 176.58 32.4336 175.208 33.0572C173.867 33.6496 172.433 33.9458 170.905 33.9458C168.879 33.9458 167.054 33.5249 165.433 32.683C163.843 31.8412 162.58 30.594 161.645 28.9415C160.741 27.2889 160.288 25.2934 160.288 22.9549V7.80154H165.573V22.1598C165.573 24.4672 166.15 26.2444 167.304 27.4916C168.458 28.7076 170.032 29.3156 172.028 29.3156C174.023 29.3156 175.598 28.7076 176.751 27.4916C177.936 26.2444 178.529 24.4672 178.529 22.1598V7.80154H183.86Z" fill="white"/>
<path d="M196.227 11.5899C197.131 10.4051 198.363 9.4073 199.922 8.59663C201.481 7.78595 203.242 7.38062 205.207 7.38062C207.452 7.38062 209.494 7.94185 211.334 9.06432C213.204 10.1556 214.67 11.699 215.73 13.6945C216.79 15.69 217.32 17.9818 217.32 20.5697C217.32 23.1576 216.79 25.4805 215.73 27.5384C214.67 29.5651 213.204 31.1552 211.334 32.3089C209.494 33.4314 207.452 33.9926 205.207 33.9926C203.242 33.9926 201.496 33.6028 199.969 32.8233C198.441 32.0127 197.194 31.0149 196.227 29.8301V45.8253H190.895V7.80154H196.227V11.5899ZM211.895 20.5697C211.895 18.7924 211.521 17.2646 210.772 15.9862C210.055 14.6767 209.089 13.6945 207.873 13.0398C206.688 12.3538 205.409 12.0108 204.038 12.0108C202.697 12.0108 201.418 12.3538 200.202 13.0398C199.018 13.7257 198.051 14.7235 197.303 16.033C196.586 17.3426 196.227 18.886 196.227 20.6632C196.227 22.4405 196.586 23.9995 197.303 25.3402C198.051 26.6497 199.018 27.6475 200.202 28.3335C201.418 29.0194 202.697 29.3624 204.038 29.3624C205.409 29.3624 206.688 29.0194 207.873 28.3335C209.089 27.6163 210.055 26.5874 210.772 25.2466C211.521 23.9059 211.895 22.3469 211.895 20.5697Z" fill="white"/>
<path d="M22.1957 26.0043C21.8468 25.7603 21.3827 25.7603 21.0339 26.0043L3.14765 38.5188C2.54719 38.9389 1.71309 38.6024 1.57237 37.8831L0.144867 30.587C0.0690444 30.1995 0.225275 29.8032 0.545161 29.5716L21.0325 14.7427C21.3812 14.4903 21.8515 14.4858 22.205 14.7316L42.6729 28.9617C42.9994 29.1886 43.1629 29.5856 43.0911 29.9767L41.6431 37.8603C41.5098 38.586 40.6702 38.9305 40.0656 38.5074L22.1957 26.0043Z" fill="white"/>
<path d="M35.3821 18.1327C35.9867 18.5558 36.8263 18.2113 36.9596 17.4856L37.9569 12.0557C38.0287 11.6646 37.8652 11.2677 37.5387 11.0407L22.3288 0.466219C21.9753 0.220446 21.5051 0.224915 21.1563 0.477362L5.927 11.5005C5.60711 11.732 5.45088 12.1283 5.5267 12.5159L6.50352 17.5085C6.64423 18.2277 7.47834 18.5643 8.0788 18.1441L21.1577 8.99318C21.5065 8.74913 21.9707 8.74913 22.3195 8.99318L35.3821 18.1327Z" fill="white"/>
</svg>
