<svg width="19" height="19" viewBox="0 0 19 19" fill="none" xmlns="http://www.w3.org/2000/svg">
<path d="M7.38889 0H1.05556C0.775605 0 0.50712 0.11121 0.309165 0.309165C0.11121 0.50712 0 0.775605 0 1.05556V7.38889C0 7.66884 0.11121 7.93732 0.309165 8.13528C0.50712 8.33323 0.775605 8.44444 1.05556 8.44444H7.38889C7.66884 8.44444 7.93732 8.33323 8.13528 8.13528C8.33323 7.93732 8.44444 7.66884 8.44444 7.38889V1.05556C8.44444 0.775605 8.33323 0.50712 8.13528 0.309165C7.93732 0.11121 7.66884 0 7.38889 0ZM17.9444 10.5556H11.6111C11.3312 10.5556 11.0627 10.6668 10.8647 10.8647C10.6668 11.0627 10.5556 11.3312 10.5556 11.6111V17.9444C10.5556 18.2244 10.6668 18.4929 10.8647 18.6908C11.0627 18.8888 11.3312 19 11.6111 19H17.9444C18.2244 19 18.4929 18.8888 18.6908 18.6908C18.8888 18.4929 19 18.2244 19 17.9444V11.6111C19 11.3312 18.8888 11.0627 18.6908 10.8647C18.4929 10.6668 18.2244 10.5556 17.9444 10.5556ZM14.7778 0C12.4492 0 10.5556 1.89367 10.5556 4.22222C10.5556 6.55078 12.4492 8.44444 14.7778 8.44444C17.1063 8.44444 19 6.55078 19 4.22222C19 1.89367 17.1063 0 14.7778 0ZM4.22222 10.5556C1.89367 10.5556 0 12.4492 0 14.7778C0 17.1063 1.89367 19 4.22222 19C6.55078 19 8.44444 17.1063 8.44444 14.7778C8.44444 12.4492 6.55078 10.5556 4.22222 10.5556Z" fill="#203FFF"/>
</svg>
