<svg width="34" height="17" viewBox="0 0 34 17" fill="none" xmlns="http://www.w3.org/2000/svg">
<path fill-rule="evenodd" clip-rule="evenodd" d="M15.7927 10.001H10.5461C9.85844 12.0296 7.81286 13.501 5.39632 13.501C2.41574 13.501 -0.000488281 11.2625 -0.000488281 8.50103C-0.000488281 5.7396 2.41574 3.50103 5.39632 3.50103C7.8128 3.50103 9.85834 4.97243 10.5461 7.00095H15.7927C16.5575 3.02194 20.3104 0.000976562 24.8248 0.000976562C29.8919 0.000976562 33.9995 3.80656 33.9995 8.501C33.9995 13.1954 29.8919 17.001 24.8248 17.001C20.3104 17.001 16.5574 13.98 15.7927 10.001ZM18.8884 8.501C18.8884 5.46343 21.5462 3.00098 24.8248 3.00098C28.1035 3.00098 30.7614 5.46343 30.7614 8.501C30.7614 11.5386 28.1035 14.001 24.8248 14.001C21.5462 14.001 18.8884 11.5386 18.8884 8.501Z" fill="#203FFF"/>
</svg>
