<svg width="410" height="162" viewBox="0 0 410 162" fill="none" xmlns="http://www.w3.org/2000/svg">
<path d="M253.757 132.959C258.897 137.104 264.765 140.027 270.987 142.283C286.544 147.926 304.727 152.271 320.506 144.679C336.702 136.886 348.135 119.161 354.378 102.978C360.647 86.7252 362.341 69.0043 351.256 54.3902C341.579 41.633 325.011 31.2168 309.448 27.6073C292.479 23.6719 274.77 28.4576 261.537 39.7098C247.03 52.0452 235.906 72.2126 238.902 91.7641C239.995 98.8958 244.198 106.675 248.722 112.218C256.355 121.571 252.907 114.891 260.675 122.202" stroke="#203FFF" stroke-width="5" stroke-linecap="round"/>
<path d="M252.816 132.705C248.742 132.019 243.624 134.863 239.948 136.179C232.624 138.8 225.696 142.406 218.564 145.497C217.943 145.766 216.442 146.721 216.617 146.068C217.407 143.12 219.793 139.853 221.159 137.169C224.725 130.168 228.943 123.56 232.875 116.769" stroke="#203FFF" stroke-width="5" stroke-linecap="round"/>
<path d="M261.232 72.6256C262.03 72.271 262.671 70.6469 263.309 69.9963C264.465 68.818 267.424 67.5918 269.087 68.1461C271.651 69.0005 272.893 70.3507 274.671 72.2686C276.121 73.8329 278.055 75.4623 280.286 75.6445C285.7 76.0864 288.075 70.1863 293.141 69.9963C295.665 69.9017 297.617 71.7271 299.827 72.7879C301.796 73.7327 302.917 75.338 304.697 76.5858C307.074 78.2524 309.661 78.4523 312.487 78.4685C314.113 78.4779 316.203 78.7873 317.713 78.0141C319.502 77.0988 321.118 75.1692 322.615 73.8591C324.214 72.4601 326.688 70.7982 326.153 68.3733C325.901 67.2318 323.058 65.7505 321.933 65.6142C320.146 65.3976 318.883 66.5449 318.265 68.1461C317.115 71.1265 317.972 73.3679 320.44 75.2549C323.867 77.8755 328.372 80.7361 332.807 80.6109C336.177 80.5158 339.174 78.4685 342.448 78.4685" stroke="#203FFF" stroke-width="5" stroke-linecap="round"/>
<path d="M266.783 104.178C271.024 104.178 274.042 105.555 277.982 102.847C280.796 100.912 284.354 93.1718 280.335 90.9175C278.651 89.973 276.545 90.0743 274.671 90.1547C271.976 90.2702 271.729 93.1249 271.749 95.251C271.798 100.545 278.798 105.131 283.565 106.044C289.94 107.265 292.812 100.119 298.643 99.8117C300.463 99.7159 302.157 99.76 303.755 100.737C305.917 102.058 307.109 103.869 309.923 103.463C315.213 102.702 322.071 92.8535 326.981 99.341C328.475 101.316 330.457 105.233 333.359 105.346C336.172 105.455 338.574 104.719 341.28 104.178" stroke="#203FFF" stroke-width="5" stroke-linecap="round"/>
<path d="M156.276 98.7154C156.276 100.126 160.732 101.163 162.001 101.198C166.205 101.317 168.694 98.3799 169.485 94.3011C169.843 92.4535 170.274 89.8743 168.622 88.5074C167.301 87.414 165.983 86.8113 164.415 86.1279C162.499 85.2926 159.559 83.9833 157.587 84.3691C152.321 85.3993 149.438 90.5314 147.862 95.4047C145.81 101.745 147.287 108.58 152.69 112.855C156.684 116.015 163.417 116.443 168.243 115.579C171.647 114.97 175.915 112.838 178.623 110.682C182.131 107.891 184.47 104.137 184.814 99.6637C185.074 96.2787 185.141 92.9179 185.141 89.5248C185.141 85.1765 183.137 82.2539 180.451 78.9202C177.058 74.7075 174.033 71.1941 168.76 69.6434C162.549 67.8167 157.592 66.4091 151.155 67.8501C145.534 69.1086 141.362 71.4758 137.688 75.8682C133.358 81.0458 132.989 86.8094 131.481 93.0596C130.792 95.9134 131.375 99.1824 131.463 102.095C131.554 105.097 132.436 107.871 133.619 110.613C134.81 113.374 137.095 115.396 138.688 117.907C140.084 120.107 141.836 122.29 144.189 123.528C149.507 126.327 154.958 128.492 160.932 129.132" stroke="#203FFF" stroke-width="5" stroke-linecap="round"/>
<path d="M372.492 49.5527C378.506 53.6127 382.831 61.3858 384.11 68.4415C384.63 71.313 384.48 74.2849 384.48 77.1921" stroke="#203FFF" stroke-width="5" stroke-linecap="round"/>
<path d="M382.481 31.5723C390.58 38.7789 397.989 46.054 402.203 56.3256C405.767 65.0134 406.487 74.2923 407.124 83.5209" stroke="#203FFF" stroke-width="5" stroke-linecap="round"/>
<path d="M235.53 28.4353C233.088 27.2143 231.045 24.5126 228.782 22.9336C221.604 17.9253 213.974 13.2108 205.833 9.95448C187.884 2.77487 166.712 1.34465 147.807 4.78714C141.139 6.0014 97.1376 12.4944 106.651 27.645C107.925 29.6744 113.096 32.4931 115.678 32.2348C117.536 32.049 118.238 29.6034 118.748 28.1314C120.15 24.0853 119.626 21.6236 116.56 18.4046C103.471 4.66489 84.2506 6.02626 66.8622 8.95141C53.4763 11.2032 40.6716 16.2195 28.1072 21.201C19.4092 24.6496 10.6983 28.0922 3 33.3595" stroke="#203FFF" stroke-width="5" stroke-linecap="round"/>
<path d="M3.20068 33.4275C3.28732 30.0486 3.96185 26.9042 4.56267 23.5882C5.28278 19.614 5.54643 15.6815 5.72922 11.6602" stroke="#203FFF" stroke-width="5" stroke-linecap="round"/>
<path d="M3.20068 33.9766C10.8969 35.5381 18.7795 36.1852 26.6171 36.5051" stroke="#203FFF" stroke-width="5" stroke-linecap="round"/>
</svg>
