<svg width="534" height="212" viewBox="0 0 534 212" fill="none" xmlns="http://www.w3.org/2000/svg">
<path d="M400.468 158.642C370.077 138.841 343.121 117.071 308.488 104.163C288.854 96.8453 274.144 93.7572 253.639 91.5756C236.498 89.7519 213.101 87.9047 199.464 101.731C194.862 106.397 189.721 117.886 197.651 123.47C209.475 131.795 230.029 122.856 238.45 113.844C263.288 87.2621 213.833 60.0075 195.542 53.3584C145.552 35.1855 86.1553 31.9114 37.9153 56.4155C30.2173 60.3258 24.1848 63.8119 17.046 68.4709C13.373 70.8679 8.12432 76.4586 3.87975 78.1779C2.64939 78.6762 2.90268 61.0214 2.93318 58.633" stroke="#203FFF" stroke-width="5" stroke-linecap="round"/>
<path d="M3.5094 78.1653C10.9073 78.9887 18.2502 79.9845 25.5611 81.3772" stroke="#203FFF" stroke-width="5" stroke-linecap="round"/>
<path d="M482.922 159.566C482.922 154.964 482.988 150.357 482.922 145.755C482.809 137.883 480.305 131.748 477.111 124.618C474.766 119.381 472.467 111.641 465.869 111.143C462.453 110.886 459.374 110.173 458.837 114.259C458.555 116.401 458.026 120.165 458.837 122.26C460.092 125.502 467.034 129.008 469.869 130.555C483.118 137.782 502.611 130.294 512.018 120.281C516.726 115.269 517.334 104.799 509.618 101.964C504.143 99.953 498.769 102.568 497.322 107.775C494.351 118.473 494.858 132.292 496.733 143.397C497.253 146.478 500.269 154.154 503.723 155.608C505.411 156.319 508.334 155.699 509.954 155.271C514.741 154.009 515.343 153.552 516.27 148.913C517.523 142.65 518.163 134.508 521.913 129.081C524.323 125.593 527.661 121.962 528.818 117.796C531.891 106.735 531.451 94.8977 529.155 83.7319C528.037 78.2931 524.802 78.3252 520.902 75.1C515.72 70.815 510.86 65.1712 504.523 62.6364C495.265 58.9334 484.481 57.5739 474.837 60.8679C465.143 64.1792 451.298 71.8439 446.878 81.9213C444.088 88.2827 441.839 95.3278 441.278 102.343C440.804 108.274 440.838 115.124 442.162 120.912C442.965 124.421 445.887 127.781 447.342 131.144C449.908 137.078 454.379 142.308 458.921 146.85C462.491 150.42 468.047 151.561 472.606 153.587C473.634 154.044 475.959 160.638 476.353 161.756C477.07 163.788 476.079 166.898 478.08 168.282C482.833 171.573 492.594 169.92 497.828 169.419C504.005 168.828 509.195 165.243 515.176 164.156C518.204 163.605 515.942 167.628 515.512 168.788C514.802 170.706 514.297 173.72 512.649 175.146C508.335 178.879 500.348 179.528 495.049 180.872C490.449 182.039 486.459 182.304 481.785 182.304C480.054 182.304 479.589 182.269 478.374 183.483C476.102 185.755 481.453 186.07 483.048 186.43C490.813 188.184 498.804 187.875 506.67 186.683C509.127 186.311 511.111 184.705 513.66 184.578C515.356 184.493 520.453 184.578 518.755 184.578C514.366 184.578 509.19 188.43 504.902 189.546C497.989 191.345 492.306 192.915 485.196 192.915C482.988 192.915 480.295 192.54 478.122 193.083C476.285 193.542 475.342 195.46 473.49 195.989C473.049 196.115 481.206 201.154 482.417 201.673C485.411 202.957 490.069 204.03 493.322 204.157C497.852 204.335 501.242 202.022 505.533 201.378C507.181 201.131 509.921 201.105 507.596 202.936C503.631 206.06 502.689 208.073 497.322 208.073" stroke="#203FFF" stroke-width="4.63518" stroke-linecap="round" stroke-linejoin="round"/>
</svg>
