<svg width="305" height="219" viewBox="0 0 305 219" fill="none" xmlns="http://www.w3.org/2000/svg">
<path d="M116.343 123.234C131.361 109.442 148.101 97.4908 161.813 82.3331M163.393 72.314C158.612 72.6348 155.662 78.8222 157.887 83.1473C159.384 86.0565 166.425 87.3877 168.613 85.1813C172.194 81.5689 173.819 77.4126 170.03 73.4708C168.065 71.4274 166.086 72.3517 163.782 71.3867M164.173 77.2182C164.043 77.1159 163.92 77.0305 163.805 76.9607M163.805 76.9607C162.611 76.2353 162.228 77.193 162.35 78.3143M163.805 76.9607C165.558 75.5816 167.41 75.0322 168.722 76.3623C170.906 78.577 169.214 80.157 167.029 80.6993M163.805 76.9607C163.307 77.3528 162.817 77.8121 162.35 78.3143M162.35 78.3143C162.452 79.2607 162.913 80.3237 163.548 80.5896C164.485 80.982 165.831 80.9965 167.029 80.6993M162.35 78.3143C159.489 81.3884 157.483 86.0722 159.711 86.8299C164.022 88.2957 166.233 84.4492 167.029 80.6993M167.029 80.6993C167.234 79.7302 167.345 78.7675 167.373 77.9047M116.702 121.859C134.463 121.424 152.508 124.161 170.111 126.16C177.359 126.983 184.518 127.973 191.678 129.344C193.676 129.727 195.439 129.925 197.451 129.958M199.818 127.766C198.152 129.326 198.635 133.005 200.623 134.126C203.512 135.757 205.424 130.927 205.793 128.928C205.828 128.738 205.833 128.554 205.811 128.376M205.811 128.376C205.57 126.422 202.09 125.292 200.451 125.632C198.988 125.936 198.442 127.295 198.162 128.621C197.642 131.077 198.304 133.161 200.369 134.693C202.275 136.106 205.457 136.293 206.849 134.064C207.498 133.026 207.593 131.368 207.505 130.182C207.43 129.167 206.681 128.686 205.811 128.376ZM205.811 128.376C205.255 128.178 204.649 128.05 204.139 127.896C203.367 127.665 202.044 127.123 201.306 127.763C200.661 128.323 200.226 129.726 200.522 130.543C200.908 131.61 201.864 130.985 202.537 130.688M201.466 126.297C203.888 118.375 207.124 110.661 209.798 102.819C212.703 94.2987 215.365 85.7523 217.762 77.0811M216.873 75.3944C217.233 77.2107 219.935 79.525 220.757 76.7292C220.885 76.2926 221.089 75.5723 221.242 74.7761M221.242 74.7761C221.449 73.6963 221.564 72.4771 221.275 71.637M221.242 74.7761C220.096 74.8221 218.75 74.5149 218.519 73.2573C218.444 72.8482 218.182 71.2718 218.58 70.957C218.641 70.9088 218.71 70.8654 218.785 70.8268M221.242 74.7761C221.274 74.7748 221.305 74.7733 221.337 74.7714C222.165 74.7238 222.556 73.7786 222.606 72.8641M221.275 71.637C221.149 71.2706 220.945 70.9764 220.639 70.7973C220.173 70.5246 219.322 70.5503 218.785 70.8268M221.275 71.637C221.792 71.966 222.251 72.3825 222.606 72.8641M221.275 71.637C220.521 71.1579 219.643 70.8646 218.785 70.8268M218.785 70.8268C218.373 70.8087 217.966 70.8494 217.579 70.9565M222.606 72.8641C222.635 72.3136 222.541 71.7743 222.343 71.4483C221.71 70.404 220.474 69.7481 219.26 69.8441C218.568 69.8988 218.018 70.3454 217.579 70.9565M222.606 72.8641C222.863 73.2147 223.065 73.5999 223.194 74.0108C223.641 75.44 223.416 77.855 222.4 79.0445C221.391 80.2261 219.593 79.9917 218.231 79.7339C215.257 79.1707 215.385 76.967 216.148 74.3866C216.405 73.5163 216.831 71.9977 217.579 70.9565M217.579 70.9565C216.842 71.1607 216.178 71.6064 215.698 72.347C214.848 73.658 213.979 75.3601 214.391 76.9624C214.741 78.3246 215.836 79.3122 216.81 80.2497M205.769 129.695C207.55 131.987 209.201 134.367 211.082 136.583C214.887 141.063 219.138 145.08 223.454 149.056C226.228 151.611 228.917 154.488 232.027 156.652M230.778 155.377C230.345 156.792 230.637 159.381 231.296 160.689C232.097 162.282 234.863 162.589 236.416 162.61C237.519 162.624 238.684 162.575 239.307 161.51C239.997 160.33 240.168 158.429 240.238 157.082C240.345 155.049 237.881 154.419 236.289 153.972C234.842 153.566 233.358 153.545 233.338 155.453C233.315 157.545 234.993 158.052 236.677 158.474C237.833 158.763 238.704 157.965 238.456 156.705C238.121 155.005 235.48 155.309 234.268 155.337M235.826 155.426C236.009 155.238 236.208 155.106 236.282 154.835C236.882 152.667 237.203 150.316 237.632 148.115C238.6 143.147 239.71 138.263 240.931 133.351C242.597 126.653 243.843 119.888 245.016 113.091M241.151 110.439C240.54 112.275 241.795 114.602 243.479 115.404C244.14 115.719 244.741 115.507 245.268 115M245.268 115C245.382 114.89 245.494 114.765 245.601 114.629M245.268 115C244.766 114.844 244.272 114.561 243.815 114.19M245.268 115C245.43 115.051 245.592 115.088 245.755 115.111C247.195 115.312 248.19 114.715 248.54 113.242C248.836 112.001 248.972 108.866 247.774 107.925C247.642 107.821 247.48 107.748 247.3 107.698M245.601 114.629C245.924 114.22 246.213 113.706 246.463 113.152M245.601 114.629C244.891 114.67 244.294 114.505 243.815 114.19M245.601 114.629C245.911 114.611 246.243 114.553 246.595 114.451C247.073 114.312 246.897 113.768 246.463 113.152M246.463 113.152C247.166 111.602 247.571 109.736 247.586 108.973C247.595 108.467 247.489 108.043 247.3 107.698M246.463 113.152C245.813 112.229 244.582 111.143 244.101 111.018M247.3 107.698C246.47 106.181 244.027 106.169 242.593 107.346C240.724 108.879 241.505 111.728 243.117 113.523M247.3 107.698C246.658 107.517 245.789 107.625 245.256 107.674C243.772 107.808 242.929 108.361 242.569 109.881C242.245 111.248 242.444 112.61 243.117 113.523M243.117 113.523C243.336 113.767 243.57 113.991 243.815 114.19M243.117 113.523C243.311 113.786 243.544 114.012 243.815 114.19M244.873 110.966C253.23 114.249 260.623 120.009 267.893 125.171C269.88 126.581 272.033 127.981 273.871 129.588M247.152 110.231C249.588 107.464 252.292 105.109 255.053 102.661C260.054 98.2276 264.875 93.6294 269.797 89.1128M271.508 85.6991C270.467 87.6206 272.056 89.2122 273.909 89.7693M273.909 89.7693C274.328 89.8953 274.761 89.9684 275.18 89.9803C277.915 90.0583 280.327 86.2892 279.872 83.7579C279.564 82.0389 277.355 80.1882 275.652 79.9878C272.401 79.6051 268.537 83.9416 269.18 87.1489C269.554 89.0182 272.091 89.8793 273.909 89.7693ZM273.909 89.7693C274.09 89.7583 274.265 89.7376 274.429 89.7073C277.289 89.1798 278.607 86.0454 276.528 83.8853C275.772 83.099 274.612 82.2196 273.491 82.7955C273.054 83.0198 272.419 83.5013 273.078 83.8689C274.087 84.4329 275.369 84.9623 276.518 85.1689M276.24 127.295C274.411 129.487 273.43 131.531 274.088 134.435C274.411 135.857 274.939 137.329 276.196 138.207C278.127 139.557 280.815 139.568 282.507 137.805C284.759 135.461 287.525 128.066 282.287 127.611C279.529 127.372 277.595 128.202 276.972 131.137C276.709 132.373 276.491 134.342 277.052 135.541C278.216 138.03 282.284 134.874 283.231 133.811C284.314 132.595 284.58 131.123 283.208 130.093C282.424 129.505 280.591 128.926 279.733 129.712C279.243 130.161 279.363 131.182 279.777 131.8M279.777 131.8C280.066 132.231 280.497 132.465 280.965 132.174C281.351 131.933 280.495 131.761 279.777 131.8ZM279.777 131.8C279.493 131.816 279.23 131.864 279.075 131.956" stroke="#203FFF" stroke-width="5.08082" stroke-linecap="round"/>
<path d="M116.947 124.13C120.815 135.984 125.369 148.071 127.2 160.463C127.444 162.114 127.995 163.106 127.964 164.829" stroke="#203FFF" stroke-width="5.0849" stroke-linecap="round"/>
<path d="M127.964 164.829C124.865 166.71 122.539 168.862 125.274 172.443C125.994 173.385 130.966 177.689 131.95 174.938C132.426 173.609 133.268 170.012 131.673 169.284C130.016 168.528 125.275 165.111 126.585 170.246C128.147 176.37 135.255 170.633 132.181 167.425C129.246 164.362 124.341 167.037 124.624 170.871C124.787 173.08 128.522 173.629 130.117 173.831C133.205 174.22 134.537 172.503 133.575 169.496C132.6 166.447 131.741 166.456 128.877 166.046" stroke="#203FFF" stroke-width="5.0849" stroke-linecap="round"/>
<path d="M117.561 120.985C111.217 124.846 105.04 128.855 99.0942 133.318C92.3164 138.406 85.8289 143.833 78.7755 148.547C74.5612 151.364 70.1902 153.976 66.1303 157.019" stroke="#203FFF" stroke-width="5.0849" stroke-linecap="round"/>
<path d="M65.0037 156.857C68.0839 159.484 68.033 163.846 65.9303 167.224C64.1239 170.127 61.2129 167.568 59.1846 166.275C56.5303 164.582 57.1216 161.2 58.0963 158.487C59.3234 155.071 66.4742 157.458 64.9017 161.473C64.0671 163.604 59.4408 169.382 58.8053 164.24C58.7584 163.861 58.3926 160.875 58.7573 160.561C58.987 160.364 60.7343 160.634 61.0104 160.66C62.7738 160.828 66.1822 163.062 62.7663 163.786C61.3377 164.088 60.0501 164.032 61.0725 162.234C61.5371 161.416 62.6099 160.01 63.4159 159.472C66.6448 157.318 62.8525 160.308 65.8076 159.271" stroke="#203FFF" stroke-width="5.0849" stroke-linecap="round"/>
<path d="M116.877 121.748C115.856 118.932 114.14 116.208 112.744 113.588C107.123 103.032 100.964 92.7038 96.4728 81.5918C94.2395 76.0656 92.6437 70.3476 90.8476 64.676C90.4319 63.3632 89.9469 61.3151 88.8932 60.2607" stroke="#203FFF" stroke-width="5.0849" stroke-linecap="round"/>
<path d="M87.847 59.5372C88.7379 59.8687 90.9771 61.3444 91.7183 60.1553C93.2176 57.7503 92.0018 53.2983 88.9936 52.8676C86.4512 52.5036 85.666 56.215 85.2725 58.1148C84.8649 60.0825 86.7899 62.3004 88.5598 60.4695C89.5584 59.4365 91.6945 54.0648 88.4162 55.2278C86.0393 56.071 87.8836 57.5396 88.5185 56.8551C89.6304 55.6561 86.4992 54.171 87.1647 54.2663" stroke="#203FFF" stroke-width="5.0849" stroke-linecap="round"/>
<path d="M89.9403 56.9619C81.5796 60.722 73.8612 65.6078 65.6437 69.6415C59.3893 72.7116 52.9443 75.3102 46.4404 77.7494" stroke="#203FFF" stroke-width="5.0849" stroke-linecap="round"/>
<path d="M44.7505 77.509C45.656 77.6864 49.8256 78.8546 49.4247 76.6455C49.0964 74.8364 45.0213 74.1058 44.333 75.9644C43.7672 77.4925 44.1214 81.0183 46.4935 79.1637C48.5861 77.5275 46.2475 77.2758 44.9247 78.0768C43.0781 79.1951 45.7058 79.7109 46.3993 80.0443" stroke="#203FFF" stroke-width="5.0849" stroke-linecap="round"/>
<path d="M85.1128 54.5471C74.9866 44.9924 63.2667 37.1933 53.7387 26.999C50.0839 23.0887 47.5172 19.2502 42.8385 16.5928" stroke="#203FFF" stroke-width="5.0849" stroke-linecap="round"/>
<path d="M38.735 15.1434C39.2504 16.7566 40.5487 19.173 42.5362 17.923C43.6716 17.209 46.0543 14.3155 45.1329 12.8342C44.6152 12.0019 41.3539 11.3811 40.4929 11.7866C39.5894 12.2122 39.7053 14.3403 39.8347 15.0454C40.0739 16.3482 40.6691 16.8023 41.5506 17.5584" stroke="#203FFF" stroke-width="5.0849" stroke-linecap="round"/>
<path d="M90.5845 54.4684C92.7732 47.6209 94.9287 40.7603 97.2878 33.9688C99.2716 28.2576 101.691 22.8759 103.954 17.296" stroke="#203FFF" stroke-width="5.0849" stroke-linecap="round"/>
<path d="M101.42 14.9206C102.571 17.6959 103.737 19.8481 107.076 19.6901C109.28 19.5859 109.982 17.7503 110.24 15.7683C110.447 14.1852 109.786 12.3815 108.317 11.5811C107.155 10.9479 104.324 11.0241 103.323 11.9997C101.327 13.9463 102.402 16.9935 105.228 17.0944C105.81 17.1152 107.968 16.522 107.006 15.4968C106.488 14.9451 105.473 15.3124 104.831 15.409C104.628 15.4395 105.238 15.4787 105.443 15.4807C105.865 15.4847 105.442 15.3204 105.403 15.2035" stroke="#203FFF" stroke-width="5.0849" stroke-linecap="round"/>
<path d="M42.4304 75.9984C42.2877 77.191 42.0693 78.2331 42.7748 79.2685C43.181 79.8645 43.6406 80.3404 44.2659 80.707C45.0355 81.1581 45.9259 81.8079 46.8455 81.5543C47.5342 81.3644 48.2773 81.3295 48.9119 80.9778C50.2511 80.2355 51.1981 78.6776 51.5632 77.2343C52.0851 75.1711 51.6778 72.8883 49.7212 71.8197C48.0161 70.8885 45.1006 71.5358 43.9304 73.0342C42.6515 74.6717 41.1529 77.1317 42.4143 79.1153" stroke="#203FFF" stroke-width="5.0849" stroke-linecap="round"/>
<path d="M60.6886 160.27C54.4075 152.806 46.5402 143.557 40.3462 135.843C19.6439 110.058 45.4128 141.925 29.6737 121.642" stroke="#203FFF" stroke-width="5.0849" stroke-linecap="round"/>
<path d="M61.8846 162.208C44.0711 167.423 26.2426 173.365 7.95398 176.591" stroke="#203FFF" stroke-width="5.0849" stroke-linecap="round"/>
<path d="M5.57379 173.179C4.19317 174.119 3.02699 176.023 3.44669 177.766C3.79351 179.207 6.14771 180.227 7.46438 179.531C8.30829 179.084 8.6478 178.327 8.65539 177.404C8.66336 176.434 8.68608 173.887 7.54426 173.385C7.18413 173.227 6.56841 173.185 6.17766 173.19C5.82857 173.194 5.67046 173.493 5.49189 173.751" stroke="#203FFF" stroke-width="5.0849" stroke-linecap="round"/>
<path d="M25.574 115.718C24.1718 116.672 23.3932 118.337 23.4266 120.032C23.4489 121.164 23.9375 122.468 25.1359 122.855C26.7094 123.363 28.1064 122.296 28.9421 121.076C29.8804 119.705 30.3634 117.726 28.802 116.656C28.2386 116.269 27.2414 115.887 26.5486 115.933C25.9218 115.974 24.9543 116.24 24.4613 116.656C23.6426 117.346 24.0239 119.284 24.4027 120.085C24.8704 121.075 25.9344 121.406 26.9239 120.938C27.3155 120.753 27.7677 120.322 27.6923 119.837C27.5912 119.187 26.8381 119.015 26.4176 118.66" stroke="#203FFF" stroke-width="5.0849" stroke-linecap="round"/>
</svg>
