<svg width="172" height="37" viewBox="0 0 172 37" fill="none" xmlns="http://www.w3.org/2000/svg">
<path d="M50.7956 26.6785L54.6797 26.6718L50.7671 6.3927H46.9778L50.7956 26.6785Z" fill="black"/>
<path d="M58.4634 26.6785L54.5793 26.6718L59.5596 6.3927H63.3488L58.4634 26.6785Z" fill="black"/>
<path d="M64.445 26.6785L68.3291 26.6718L63.3488 6.3927H59.5596L64.445 26.6785Z" fill="black"/>
<path d="M72.1128 26.6785L68.2287 26.6718L72.1413 6.3927H75.9305L72.1128 26.6785Z" fill="black"/>
<path d="M78.9547 16.8373C78.9547 14.7879 79.3744 12.9731 80.214 11.3928C81.0782 9.81252 82.2387 8.59027 83.6955 7.72606C85.177 6.83715 86.8067 6.3927 88.5845 6.3927C90.1895 6.3927 91.5845 6.71369 92.7697 7.35568C93.9796 7.97298 94.9426 8.75077 95.6587 9.68906V6.72604H99.918V27.1338H95.6587V24.0967C94.9426 25.0597 93.9673 25.8622 92.7327 26.5042C91.4981 27.1462 90.0907 27.4672 88.5104 27.4672C86.7573 27.4672 85.1523 27.0227 83.6955 26.1338C82.2387 25.2202 81.0782 23.9609 80.214 22.356C79.3744 20.7263 78.9547 18.8868 78.9547 16.8373ZM95.6587 16.9114C95.6587 15.504 95.3624 14.2817 94.7698 13.2447C94.2019 12.2076 93.4488 11.4175 92.5105 10.8743C91.5722 10.331 90.5598 10.0594 89.4734 10.0594C88.387 10.0594 87.3746 10.331 86.4363 10.8743C85.498 11.3928 84.7326 12.1706 84.14 13.2076C83.572 14.22 83.2881 15.4299 83.2881 16.8373C83.2881 18.2448 83.572 19.4794 84.14 20.5411C84.7326 21.6029 85.498 22.4177 86.4363 22.9856C87.3993 23.5288 88.4116 23.8004 89.4734 23.8004C90.5598 23.8004 91.5722 23.5288 92.5105 22.9856C93.4488 22.4424 94.2019 21.6522 94.7698 20.6152C95.3624 19.5534 95.6587 18.3188 95.6587 16.9114Z" fill="black"/>
<path d="M123.835 6.72604L111.316 36.7266H106.945L111.094 26.8005L103.056 6.72604H107.76L113.501 22.2819L119.464 6.72604H123.835Z" fill="black"/>
<path d="M145.503 6.72604V27.1338H141.28V24.7264C140.614 25.5659 139.737 26.2326 138.651 26.7264C137.589 27.1955 136.453 27.4301 135.243 27.4301C133.638 27.4301 132.194 27.0968 130.91 26.4301C129.651 25.7634 128.651 24.7758 127.91 23.4671C127.194 22.1584 126.836 20.5781 126.836 18.7263V6.72604H131.021V18.0966C131.021 19.9238 131.478 21.3312 132.391 22.3189C133.305 23.2819 134.552 23.7634 136.132 23.7634C137.713 23.7634 138.959 23.2819 139.873 22.3189C140.811 21.3312 141.28 19.9238 141.28 18.0966V6.72604H145.503Z" fill="black"/>
<path d="M155.296 9.72609C156.012 8.78781 156.987 7.99767 158.222 7.35568C159.457 6.71369 160.852 6.3927 162.407 6.3927C164.185 6.3927 165.802 6.83715 167.259 7.72606C168.741 8.59027 169.901 9.81252 170.741 11.3928C171.58 12.9731 172 14.7879 172 16.8373C172 18.8868 171.58 20.7263 170.741 22.356C169.901 23.9609 168.741 25.2202 167.259 26.1338C165.802 27.0227 164.185 27.4672 162.407 27.4672C160.852 27.4672 159.469 27.1585 158.259 26.5412C157.049 25.8992 156.062 25.1091 155.296 24.1708V36.8377H151.074V6.72604H155.296V9.72609ZM167.704 16.8373C167.704 15.4299 167.407 14.22 166.815 13.2076C166.247 12.1706 165.481 11.3928 164.518 10.8743C163.58 10.331 162.568 10.0594 161.481 10.0594C160.42 10.0594 159.407 10.331 158.444 10.8743C157.506 11.4175 156.741 12.2076 156.148 13.2447C155.58 14.2817 155.296 15.504 155.296 16.9114C155.296 18.3188 155.58 19.5534 156.148 20.6152C156.741 21.6522 157.506 22.4424 158.444 22.9856C159.407 23.5288 160.42 23.8004 161.481 23.8004C162.568 23.8004 163.58 23.5288 164.518 22.9856C165.481 22.4177 166.247 21.6029 166.815 20.5411C167.407 19.4794 167.704 18.2448 167.704 16.8373Z" fill="black"/>
<path d="M17.4773 21.14C17.2011 20.9467 16.8335 20.9467 16.5573 21.14L2.39291 31.0504C1.9174 31.3831 1.25686 31.1166 1.14542 30.547L0.0149599 24.7691C-0.0450855 24.4622 0.078636 24.1483 0.331959 23.965L16.5562 12.2217C16.8324 12.0218 17.2048 12.0183 17.4847 12.2129L33.6936 23.4819C33.9521 23.6617 34.0816 23.976 34.0248 24.2857L32.8781 30.5289C32.7725 31.1036 32.1076 31.3764 31.6288 31.0414L17.4773 21.14Z" fill="#203FFF"/>
<path d="M27.9203 14.9074C28.3991 15.2424 29.064 14.9697 29.1696 14.3949L29.9594 10.0949C30.0162 9.78523 29.8867 9.47089 29.6282 9.29114L17.5832 0.917018C17.3033 0.722386 16.9309 0.725925 16.6547 0.925841L4.59437 9.65524C4.34105 9.8386 4.21733 10.1524 4.27737 10.4593L5.05093 14.4131C5.16236 14.9826 5.82291 15.2492 6.29842 14.9165L16.6558 7.66966C16.932 7.47639 17.2996 7.47639 17.5758 7.66966L27.9203 14.9074Z" fill="#203FFF"/>
</svg>
