<svg width="19" height="21" viewBox="0 0 19 21" fill="none" xmlns="http://www.w3.org/2000/svg">
<path d="M15.9196 14.92C17.575 14.92 18.9169 16.2619 18.9169 17.9173C18.9169 19.5727 17.575 20.9146 15.9196 20.9146C14.2642 20.9146 12.9223 19.5727 12.9223 17.9173C12.9223 16.2619 14.2642 14.92 15.9196 14.92ZM13.4218 2.93081C15.9049 2.93081 17.9178 4.94371 17.9178 7.42675C17.9178 9.9098 15.9049 11.9227 13.4218 11.9227H6.42814C5.04868 11.9227 3.9304 13.041 3.9304 14.4204C3.9304 15.7999 5.04868 16.9182 6.42814 16.9182H10.9241C11.4759 16.9182 11.9232 17.3655 11.9232 17.9173C11.9232 18.4691 11.4759 18.9164 10.9241 18.9164H6.42814C3.9451 18.9164 1.9322 16.9035 1.9322 14.4204C1.9322 11.9374 3.9451 9.92449 6.42814 9.92449H13.4218C14.8013 9.92449 15.9196 8.80621 15.9196 7.42675C15.9196 6.04728 14.8013 4.92901 13.4218 4.92901H8.92588C8.37408 4.92901 7.92678 4.48169 7.92678 3.92991C7.92678 3.37813 8.37408 2.93081 8.92588 2.93081H13.4218ZM3.9304 0.932617C5.58575 0.932617 6.92769 2.27455 6.92769 3.92991C6.92769 5.58526 5.58575 6.9272 3.9304 6.9272C2.27504 6.9272 0.933105 5.58526 0.933105 3.92991C0.933105 2.27455 2.27504 0.932617 3.9304 0.932617Z" fill="#203FFF"/>
</svg>
