<svg width="8" height="19" viewBox="0 0 8 19" fill="none" xmlns="http://www.w3.org/2000/svg">
<path d="M2.3166 13.5956C2.21364 13.5956 2.07979 13.5205 1.91506 13.3704C1.75032 13.2015 1.62677 12.9951 1.5444 12.7511C1.42085 12.4509 1.287 12.1225 1.14286 11.7659C1.0193 11.3906 0.957529 10.9027 0.957529 10.3022C0.957529 9.75803 1.24582 9.27951 1.82239 8.86667C2.39897 8.45383 3.21236 8.01284 4.26255 7.5437C4.75676 7.31852 5.19949 7.03704 5.59073 6.69926C5.98198 6.34272 6.17761 5.93926 6.17761 5.48889C6.17761 4.68198 5.9305 4.03457 5.43629 3.54667C4.94208 3.04 4.24196 2.78667 3.33591 2.78667C3.0888 2.78667 2.88288 2.80543 2.71815 2.84296C2.574 2.86173 2.45045 2.88988 2.34749 2.92741C2.22394 2.94617 2.09009 2.96494 1.94595 2.9837C1.82239 3.00247 1.67825 3.01185 1.51351 3.01185C1.26641 3.01185 1.0296 2.91802 0.803089 2.73037C0.576577 2.52395 0.380952 2.28 0.216216 1.99852C0.0720721 1.69827 0 1.41679 0 1.15407C0 0.853827 0.164736 0.591111 0.494209 0.365926C0.844273 0.121975 1.20463 0 1.57529 0C2.19305 0 2.8314 0.140741 3.49035 0.422222C4.14929 0.703703 4.75676 1.10716 5.31274 1.63259C5.86873 2.13926 6.34234 2.7116 6.73359 3.34963C7.14543 3.96889 7.45431 4.58815 7.66023 5.20741C7.88674 5.82667 8 6.38963 8 6.8963C8 7.60938 7.85586 8.16296 7.56757 8.55704C7.27928 8.95111 6.9704 9.22321 6.64093 9.37333C6.22909 9.56099 5.88932 9.72988 5.62162 9.88C5.35393 10.0301 5.08623 10.1709 4.81853 10.3022C4.57143 10.4336 4.28314 10.6025 3.95367 10.8089C3.50064 11.0341 3.21236 11.3249 3.0888 11.6815C2.98584 12.038 2.91377 12.4602 2.87259 12.9481C2.87259 13.0983 2.82111 13.2484 2.71815 13.3985C2.63578 13.5299 2.50193 13.5956 2.3166 13.5956ZM2.59459 19C2.0592 19 1.59588 18.8217 1.20463 18.4652C0.813385 18.1086 0.617761 17.6864 0.617761 17.1985C0.617761 16.6919 0.813385 16.2602 1.20463 15.9037C1.59588 15.5472 2.0592 15.3689 2.59459 15.3689C3.15058 15.3689 3.6242 15.5472 4.01544 15.9037C4.40669 16.2602 4.60232 16.6919 4.60232 17.1985C4.60232 17.6864 4.40669 18.1086 4.01544 18.4652C3.6242 18.8217 3.15058 19 2.59459 19Z" fill="#203FFF"/>
</svg>
